<svg width="68" height="58" viewBox="0 0 68 58" fill="none" xmlns="http://www.w3.org/2000/svg">
<g filter="url(#filter0_i)">
<path d="M8.336 0.919998V39.576H28.432V47H0.336V0.919998H8.336ZM36.279 33.496V14.36C36.279 12.2267 36.6417 10.3067 37.367 8.6C38.0923 6.85066 39.1163 5.35733 40.439 4.12C41.7617 2.88266 43.3617 1.944 45.239 1.304C47.159 0.621332 49.271 0.279999 51.575 0.279999C53.879 0.279999 55.9697 0.621332 57.847 1.304C59.767 1.944 61.3883 2.88266 62.711 4.12C64.0337 5.35733 65.0577 6.85066 65.783 8.6C66.5083 10.3067 66.871 12.2267 66.871 14.36V33.496C66.871 36.3973 66.2097 38.9147 64.887 41.048C63.607 43.1813 61.815 44.8027 59.511 45.912L67.191 57.56H58.551L51.959 47.64C49.7403 47.64 47.671 47.3413 45.751 46.744C43.8737 46.1467 42.231 45.2507 40.823 44.056C39.415 42.8613 38.3057 41.3893 37.495 39.64C36.6843 37.8907 36.279 35.8427 36.279 33.496ZM51.575 40.6C53.7937 40.6 55.5643 39.96 56.887 38.68C58.2097 37.4 58.871 35.672 58.871 33.496V14.36C58.871 12.184 58.2097 10.456 56.887 9.176C55.5643 7.896 53.7937 7.256 51.575 7.256C49.3563 7.256 47.5857 7.896 46.263 9.176C44.9403 10.456 44.279 12.184 44.279 14.36V33.496C44.279 35.672 44.9403 37.4 46.263 38.68C47.5857 39.96 49.3563 40.6 51.575 40.6Z" fill="#00BF89"/>
</g>
<defs>
<filter id="filter0_i" x="0.335999" y="0.279999" width="66.855" height="62.28" filterUnits="userSpaceOnUse" color-interpolation-filters="sRGB">
<feFlood flood-opacity="0" result="BackgroundImageFix"/>
<feBlend mode="normal" in="SourceGraphic" in2="BackgroundImageFix" result="shape"/>
<feColorMatrix in="SourceAlpha" type="matrix" values="0 0 0 0 0 0 0 0 0 0 0 0 0 0 0 0 0 0 127 0" result="hardAlpha"/>
<feOffset dy="5"/>
<feGaussianBlur stdDeviation="2.5"/>
<feComposite in2="hardAlpha" operator="arithmetic" k2="-1" k3="1"/>
<feColorMatrix type="matrix" values="0 0 0 0 0.14902 0 0 0 0 0.14902 0 0 0 0 0.14902 0 0 0 0.25 0"/>
<feBlend mode="normal" in2="shape" result="effect1_innerShadow"/>
</filter>
</defs>
</svg>
