<svg width="192" height="70" viewBox="0 0 192 70" fill="none" xmlns="http://www.w3.org/2000/svg">
<g filter="url(#filter0_i)">
<path d="M6.004 29C5.168 29 4.45867 28.7087 3.876 28.126C3.29333 27.5433 3.002 26.834 3.002 25.998V3.559C3.002 2.73567 3.29333 2.03267 3.876 1.45C4.45867 0.854665 5.168 0.556998 6.004 0.556998C6.82733 0.556998 7.53033 0.854665 8.113 1.45C8.69567 2.03267 8.987 2.73567 8.987 3.559V23.015H20.957C21.7803 23.015 22.4897 23.3063 23.085 23.889C23.6677 24.4717 23.959 25.1747 23.959 25.998C23.959 26.834 23.6677 27.5433 23.085 28.126C22.4897 28.7087 21.7803 29 20.957 29H6.004Z" fill="#05E6A0"/>
</g>
<g filter="url(#filter1_i)">
<path d="M15.713 63C16.549 63 17.2583 62.7087 17.841 62.126C18.4237 61.5433 18.715 60.834 18.715 59.998C18.715 59.1747 18.4237 58.4717 17.841 57.889C17.2583 57.3063 16.549 57.015 15.713 57.015C13.4457 57.015 11.5077 56.2107 9.899 54.602C8.29033 52.9933 7.486 51.0553 7.486 48.788C7.486 46.5207 8.29033 44.5763 9.899 42.955C11.5077 41.3463 13.4457 40.542 15.713 40.542C17.9803 40.542 19.9247 41.3463 21.546 42.955C23.1547 44.5763 23.959 46.5207 23.959 48.788C23.959 49.6113 24.2503 50.3143 24.833 50.897C25.4157 51.4797 26.1187 51.771 26.942 51.771C27.7653 51.771 28.4683 51.4797 29.051 50.897C29.6463 50.3143 29.944 49.6113 29.944 48.788C29.944 44.8613 28.5507 41.511 25.764 38.737C22.99 35.9503 19.6397 34.557 15.713 34.557C11.799 34.557 8.44867 35.9503 5.662 38.737C2.888 41.511 1.501 44.8613 1.501 48.788C1.501 52.702 2.888 56.0523 5.662 58.839C8.44867 61.613 11.799 63 15.713 63ZM22.477 51.315C21.8943 50.7323 21.1913 50.441 20.368 50.441C19.5447 50.441 18.8417 50.7323 18.259 51.315C17.6637 51.8977 17.366 52.6007 17.366 53.424C17.366 54.26 17.6637 54.9693 18.259 55.552L24.833 62.126C25.4157 62.7087 26.1187 63 26.942 63C27.7653 63 28.4683 62.7087 29.051 62.126C29.6463 61.5433 29.944 60.834 29.944 59.998C29.944 59.1747 29.6463 58.4717 29.051 57.889L22.477 51.315Z" fill="#05E6A0"/>
</g>
<g filter="url(#filter2_i)">
<path d="M40.352 29C36.9447 29 34.0377 27.7903 31.631 25.371C29.2117 22.9643 28.002 20.0573 28.002 16.65V3.559C28.002 2.73567 28.2933 2.03267 28.876 1.45C29.4587 0.854665 30.168 0.556998 31.004 0.556998C31.8273 0.556998 32.5303 0.854665 33.113 1.45C33.6957 2.03267 33.987 2.73567 33.987 3.559V16.65C33.987 18.4107 34.6077 19.9117 35.849 21.153C37.0903 22.3943 38.5913 23.015 40.352 23.015C42.1 23.015 43.5947 22.3943 44.836 21.153C46.09 19.9117 46.717 18.4107 46.717 16.65V3.559C46.717 2.73567 47.0083 2.03267 47.591 1.45C48.1737 0.854665 48.8767 0.556998 49.7 0.556998C50.5233 0.556998 51.2327 0.854665 51.828 1.45C52.4107 2.03267 52.702 2.73567 52.702 3.559V16.65C52.702 20.0573 51.4923 22.9643 49.073 25.371C46.6663 27.7903 43.7593 29 40.352 29ZM71.4025 29C75.3291 29 78.6795 27.613 81.4535 24.839C82.0361 24.2563 82.3275 23.547 82.3275 22.711C82.3275 21.8877 82.0361 21.1847 81.4535 20.602C80.8708 20.0193 80.1678 19.728 79.3445 19.728C78.5085 19.728 77.7991 20.0193 77.2165 20.602C75.6078 22.2107 73.6698 23.015 71.4025 23.015C69.1351 23.015 67.1971 22.2107 65.5885 20.602C63.9798 18.9933 63.1755 17.0553 63.1755 14.788C63.1755 12.508 63.9798 10.5637 65.5885 8.955C67.1971 7.34633 69.1351 6.542 71.4025 6.542C73.6698 6.542 75.6078 7.34633 77.2165 8.955C77.7991 9.55033 78.5085 9.848 79.3445 9.848C80.1678 9.848 80.8708 9.55033 81.4535 8.955C82.0361 8.37233 82.3275 7.66933 82.3275 6.846C82.3275 6.02267 82.0361 5.31967 81.4535 4.737C78.6795 1.95033 75.3291 0.556998 71.4025 0.556998C67.4758 0.556998 64.1255 1.95033 61.3515 4.737C58.5775 7.49833 57.1905 10.8487 57.1905 14.788C57.1905 18.7147 58.5775 22.065 61.3515 24.839C64.1255 27.613 67.4758 29 71.4025 29ZM98.345 10.247L101.917 17.391H94.773L98.345 10.247ZM85.786 28.677C86.5207 29.0443 87.2807 29.095 88.066 28.829C88.8514 28.5757 89.4277 28.0753 89.795 27.328L91.771 23.376H104.9L106.895 27.328C107.148 27.8473 107.522 28.259 108.016 28.563C108.497 28.8543 109.017 29 109.574 29C110.043 29 110.486 28.8923 110.904 28.677C111.639 28.3097 112.139 27.7333 112.405 26.948C112.671 26.1627 112.614 25.4027 112.234 24.668L101.024 2.21C100.771 1.70333 100.403 1.298 99.922 0.993998C99.4407 0.702665 98.915 0.556998 98.345 0.556998C97.775 0.556998 97.2494 0.702665 96.768 0.993998C96.2867 1.298 95.9194 1.70333 95.666 2.21L84.437 24.668C84.0697 25.4027 84.019 26.1627 84.285 26.948C84.5384 27.7333 85.0387 28.3097 85.786 28.677ZM117.786 23.015C116.95 23.015 116.241 23.3063 115.658 23.889C115.076 24.4717 114.784 25.1747 114.784 25.998C114.784 26.834 115.076 27.5433 115.658 28.126C116.241 28.7087 116.95 29 117.786 29H130.877C133.246 29 135.273 28.1577 136.957 26.473C138.642 24.7883 139.484 22.7617 139.484 20.393C139.484 18.0243 138.642 15.9977 136.957 14.313C135.273 12.6283 133.246 11.786 130.877 11.786H123.391C122.669 11.786 122.055 11.5327 121.548 11.026C121.029 10.5067 120.769 9.886 120.769 9.164C120.769 8.442 121.029 7.82767 121.548 7.321C122.055 6.80167 122.669 6.542 123.391 6.542H136.482C137.306 6.542 138.015 6.25067 138.61 5.668C139.193 5.08533 139.484 4.38233 139.484 3.559C139.484 2.73567 139.193 2.03267 138.61 1.45C138.015 0.854665 137.306 0.556998 136.482 0.556998H123.391C121.023 0.556998 118.996 1.39933 117.311 3.084C115.627 4.76867 114.784 6.79533 114.784 9.164C114.784 11.5453 115.627 13.572 117.311 15.244C118.996 16.9287 121.023 17.771 123.391 17.771H130.877C131.599 17.771 132.214 18.0307 132.72 18.55C133.24 19.0567 133.499 19.671 133.499 20.393C133.499 21.115 133.24 21.7357 132.72 22.255C132.214 22.7617 131.599 23.015 130.877 23.015H117.786Z" fill="#F5F5F5"/>
</g>
<g filter="url(#filter3_i)">
<path d="M46.352 63C42.9447 63 40.0377 61.7903 37.631 59.371C35.2117 56.9643 34.002 54.0573 34.002 50.65V37.559C34.002 36.7357 34.2933 36.0327 34.876 35.45C35.4587 34.8547 36.168 34.557 37.004 34.557C37.8273 34.557 38.5303 34.8547 39.113 35.45C39.6957 36.0327 39.987 36.7357 39.987 37.559V50.65C39.987 52.4107 40.6077 53.9117 41.849 55.153C43.0903 56.3943 44.5913 57.015 46.352 57.015C48.1 57.015 49.5947 56.3943 50.836 55.153C52.09 53.9117 52.717 52.4107 52.717 50.65V37.559C52.717 36.7357 53.0083 36.0327 53.591 35.45C54.1737 34.8547 54.8767 34.557 55.7 34.557C56.5233 34.557 57.2327 34.8547 57.828 35.45C58.4107 36.0327 58.702 36.7357 58.702 37.559V50.65C58.702 54.0573 57.4923 56.9643 55.073 59.371C52.6663 61.7903 49.7593 63 46.352 63ZM86.3895 63C87.2128 63 87.9221 62.7087 88.5175 62.126C89.1001 61.5433 89.3915 60.834 89.3915 59.998C89.3915 59.1747 89.1001 58.4717 88.5175 57.889C87.9221 57.3063 87.2128 57.015 86.3895 57.015H70.6765V51.771H82.6465C83.4698 51.771 84.1791 51.4797 84.7745 50.897C85.3571 50.3143 85.6485 49.6113 85.6485 48.788C85.6485 47.952 85.3571 47.2427 84.7745 46.66C84.1791 46.0773 83.4698 45.786 82.6465 45.786H70.6765V40.542H86.3895C87.2128 40.542 87.9221 40.2507 88.5175 39.668C89.1001 39.0853 89.3915 38.3823 89.3915 37.559C89.3915 36.7357 89.1001 36.0327 88.5175 35.45C87.9221 34.8547 87.2128 34.557 86.3895 34.557H67.6935C66.8575 34.557 66.1481 34.8547 65.5655 35.45C64.9828 36.0327 64.6915 36.7357 64.6915 37.559V59.998C64.6915 60.834 64.9828 61.5433 65.5655 62.126C66.1481 62.7087 66.8575 63 67.6935 63H86.3895ZM96.8614 63C97.6848 63 98.3878 62.7087 98.9704 62.126C99.5531 61.5433 99.8444 60.834 99.8444 59.998V37.559C99.8444 36.7357 99.5531 36.0327 98.9704 35.45C98.3878 34.8547 97.6848 34.557 96.8614 34.557C96.0254 34.557 95.3161 34.8547 94.7334 35.45C94.1508 36.0327 93.8594 36.7357 93.8594 37.559V59.998C93.8594 60.834 94.1508 61.5433 94.7334 62.126C95.3161 62.7087 96.0254 63 96.8614 63ZM124.561 45.045C124.561 46.2737 124.117 47.3313 123.231 48.218C122.357 49.092 121.299 49.529 120.058 49.529H111.831V40.542H120.058C121.299 40.542 122.357 40.9853 123.231 41.872C124.117 42.746 124.561 43.8037 124.561 45.045ZM118.823 55.514L125.435 62.126C126.017 62.7087 126.72 63 127.544 63C128.367 63 129.076 62.7087 129.672 62.126C130.254 61.5433 130.546 60.834 130.546 59.998C130.546 59.1747 130.254 58.4717 129.672 57.889L125.663 53.88C127.157 52.93 128.335 51.6887 129.197 50.156C130.096 48.5727 130.546 46.869 130.546 45.045C130.546 42.157 129.52 39.687 127.468 37.635C125.416 35.583 122.946 34.557 120.058 34.557H108.848C108.012 34.557 107.302 34.8547 106.72 35.45C106.137 36.0327 105.846 36.7357 105.846 37.559V59.998C105.846 60.834 106.137 61.5433 106.72 62.126C107.302 62.7087 108.012 63 108.848 63C109.671 63 110.374 62.7087 110.957 62.126C111.539 61.5433 111.831 60.834 111.831 59.998V55.514H118.823ZM155.971 48.788C155.971 51.0553 155.166 52.9933 153.558 54.602C151.936 56.2107 149.992 57.015 147.725 57.015C145.457 57.015 143.519 56.2107 141.911 54.602C140.302 52.9933 139.498 51.0553 139.498 48.788C139.498 46.5207 140.302 44.5827 141.911 42.974C143.519 41.3527 145.457 40.542 147.725 40.542C149.992 40.542 151.936 41.3527 153.558 42.974C155.166 44.5827 155.971 46.5207 155.971 48.788ZM133.513 48.788C133.513 52.702 134.9 56.0523 137.674 58.839C140.46 61.613 143.811 63 147.725 63C151.651 63 155.002 61.613 157.776 58.839C160.562 56.0523 161.956 52.702 161.956 48.788C161.956 44.8613 160.562 41.511 157.776 38.737C155.002 35.9503 151.651 34.557 147.725 34.557C143.811 34.557 140.46 35.9503 137.674 38.737C134.9 41.511 133.513 44.8613 133.513 48.788ZM174.33 57.015L188.941 39.478C189.321 39.0347 189.543 38.5217 189.606 37.939C189.682 37.369 189.6 36.818 189.359 36.286C189.106 35.7667 188.739 35.3487 188.257 35.032C187.763 34.7153 187.225 34.557 186.642 34.557H167.946C167.11 34.557 166.401 34.8547 165.818 35.45C165.236 36.0327 164.944 36.7357 164.944 37.559C164.944 38.3823 165.236 39.0853 165.818 39.668C166.401 40.2507 167.11 40.542 167.946 40.542H180.258L165.647 58.098C165.267 58.5413 165.039 59.048 164.963 59.618C164.887 60.2007 164.976 60.7517 165.229 61.271C165.47 61.803 165.837 62.221 166.331 62.525C166.825 62.8417 167.364 63 167.946 63H186.642C187.466 63 188.175 62.7087 188.77 62.126C189.353 61.5433 189.644 60.834 189.644 59.998C189.644 59.1747 189.353 58.4717 188.77 57.889C188.175 57.3063 187.466 57.015 186.642 57.015H174.33Z" fill="#F5F5F5"/>
</g>
<defs>
<filter id="filter0_i" x="3.00201" y="0.556999" width="20.957" height="32.443" filterUnits="userSpaceOnUse" color-interpolation-filters="sRGB">
<feFlood flood-opacity="0" result="BackgroundImageFix"/>
<feBlend mode="normal" in="SourceGraphic" in2="BackgroundImageFix" result="shape"/>
<feColorMatrix in="SourceAlpha" type="matrix" values="0 0 0 0 0 0 0 0 0 0 0 0 0 0 0 0 0 0 127 0" result="hardAlpha"/>
<feOffset dy="4"/>
<feGaussianBlur stdDeviation="2.5"/>
<feComposite in2="hardAlpha" operator="arithmetic" k2="-1" k3="1"/>
<feColorMatrix type="matrix" values="0 0 0 0 0.14902 0 0 0 0 0.14902 0 0 0 0 0.14902 0 0 0 0.25 0"/>
<feBlend mode="normal" in2="shape" result="effect1_innerShadow"/>
</filter>
<filter id="filter1_i" x="1.50098" y="34.557" width="28.443" height="32.443" filterUnits="userSpaceOnUse" color-interpolation-filters="sRGB">
<feFlood flood-opacity="0" result="BackgroundImageFix"/>
<feBlend mode="normal" in="SourceGraphic" in2="BackgroundImageFix" result="shape"/>
<feColorMatrix in="SourceAlpha" type="matrix" values="0 0 0 0 0 0 0 0 0 0 0 0 0 0 0 0 0 0 127 0" result="hardAlpha"/>
<feOffset dy="4"/>
<feGaussianBlur stdDeviation="2.5"/>
<feComposite in2="hardAlpha" operator="arithmetic" k2="-1" k3="1"/>
<feColorMatrix type="matrix" values="0 0 0 0 0.14902 0 0 0 0 0.14902 0 0 0 0 0.14902 0 0 0 0.25 0"/>
<feBlend mode="normal" in2="shape" result="effect1_innerShadow"/>
</filter>
<filter id="filter2_i" x="28.002" y="0.556999" width="111.482" height="33.443" filterUnits="userSpaceOnUse" color-interpolation-filters="sRGB">
<feFlood flood-opacity="0" result="BackgroundImageFix"/>
<feBlend mode="normal" in="SourceGraphic" in2="BackgroundImageFix" result="shape"/>
<feColorMatrix in="SourceAlpha" type="matrix" values="0 0 0 0 0 0 0 0 0 0 0 0 0 0 0 0 0 0 127 0" result="hardAlpha"/>
<feOffset dy="5"/>
<feGaussianBlur stdDeviation="2.5"/>
<feComposite in2="hardAlpha" operator="arithmetic" k2="-1" k3="1"/>
<feColorMatrix type="matrix" values="0 0 0 0 0.14902 0 0 0 0 0.14902 0 0 0 0 0.14902 0 0 0 0.25 0"/>
<feBlend mode="normal" in2="shape" result="effect1_innerShadow"/>
</filter>
<filter id="filter3_i" x="34.002" y="34.557" width="155.642" height="33.443" filterUnits="userSpaceOnUse" color-interpolation-filters="sRGB">
<feFlood flood-opacity="0" result="BackgroundImageFix"/>
<feBlend mode="normal" in="SourceGraphic" in2="BackgroundImageFix" result="shape"/>
<feColorMatrix in="SourceAlpha" type="matrix" values="0 0 0 0 0 0 0 0 0 0 0 0 0 0 0 0 0 0 127 0" result="hardAlpha"/>
<feOffset dy="5"/>
<feGaussianBlur stdDeviation="2.5"/>
<feComposite in2="hardAlpha" operator="arithmetic" k2="-1" k3="1"/>
<feColorMatrix type="matrix" values="0 0 0 0 0.14902 0 0 0 0 0.14902 0 0 0 0 0.14902 0 0 0 0.25 0"/>
<feBlend mode="normal" in2="shape" result="effect1_innerShadow"/>
</filter>
</defs>
</svg>
