<svg width="50" height="29" viewBox="0 0 50 29" fill="none" xmlns="http://www.w3.org/2000/svg">
<g filter="url(#filter0_i)">
<path d="M3.002 28.886C2.166 28.886 1.45667 28.5947 0.874 28.012C0.29133 27.4293 0 26.72 0 25.884V3.445C0 2.62167 0.29133 1.91867 0.874 1.336C1.45667 0.74066 2.166 0.442993 3.002 0.442993C3.82533 0.442993 4.52833 0.74066 5.111 1.336C5.69367 1.91867 5.985 2.62167 5.985 3.445V22.901H17.955C18.7783 22.901 19.4877 23.1923 20.083 23.775C20.6657 24.3577 20.957 25.0607 20.957 25.884C20.957 26.72 20.6657 27.4293 20.083 28.012C19.4877 28.5947 18.7783 28.886 17.955 28.886H3.002Z" fill="#5E81AC"/>
</g>
<g filter="url(#filter1_i)">
<path d="M35.212 28.443C36.048 28.443 36.7573 28.1517 37.34 27.569C37.9227 26.9863 38.214 26.277 38.214 25.441C38.214 24.6177 37.9227 23.9147 37.34 23.332C36.7573 22.7493 36.048 22.458 35.212 22.458C32.9447 22.458 31.0067 21.6537 29.398 20.045C27.7893 18.4363 26.985 16.4983 26.985 14.231C26.985 11.9637 27.7893 10.0193 29.398 8.398C31.0067 6.7893 32.9447 5.985 35.212 5.985C37.4793 5.985 39.4237 6.7893 41.045 8.398C42.6537 10.0193 43.458 11.9637 43.458 14.231C43.458 15.0543 43.7493 15.7573 44.332 16.34C44.9147 16.9227 45.6177 17.214 46.441 17.214C47.2643 17.214 47.9673 16.9227 48.55 16.34C49.1453 15.7573 49.443 15.0543 49.443 14.231C49.443 10.3043 48.0497 6.954 45.263 4.18C42.489 1.3933 39.1387 0 35.212 0C31.298 0 27.9477 1.3933 25.161 4.18C22.387 6.954 21 10.3043 21 14.231C21 18.145 22.387 21.4953 25.161 24.282C27.9477 27.056 31.298 28.443 35.212 28.443ZM41.976 16.758C41.3933 16.1753 40.6903 15.884 39.867 15.884C39.0437 15.884 38.3407 16.1753 37.758 16.758C37.1627 17.3407 36.865 18.0437 36.865 18.867C36.865 19.703 37.1627 20.4123 37.758 20.995L44.332 27.569C44.9147 28.1517 45.6177 28.443 46.441 28.443C47.2643 28.443 47.9673 28.1517 48.55 27.569C49.1453 26.9863 49.443 26.277 49.443 25.441C49.443 24.6177 49.1453 23.9147 48.55 23.332L41.976 16.758Z" fill="#5E81AC"/>
</g>
<defs>
<filter id="filter0_i" x="0" y="0.442993" width="20.957" height="32.443" filterUnits="userSpaceOnUse" color-interpolation-filters="sRGB">
<feFlood flood-opacity="0" result="BackgroundImageFix"/>
<feBlend mode="normal" in="SourceGraphic" in2="BackgroundImageFix" result="shape"/>
<feColorMatrix in="SourceAlpha" type="matrix" values="0 0 0 0 0 0 0 0 0 0 0 0 0 0 0 0 0 0 127 0" result="hardAlpha"/>
<feOffset dy="4"/>
<feGaussianBlur stdDeviation="2.5"/>
<feComposite in2="hardAlpha" operator="arithmetic" k2="-1" k3="1"/>
<feColorMatrix type="matrix" values="0 0 0 0 0.14902 0 0 0 0 0.14902 0 0 0 0 0.14902 0 0 0 0.25 0"/>
<feBlend mode="normal" in2="shape" result="effect1_innerShadow"/>
</filter>
<filter id="filter1_i" x="21" y="0" width="28.443" height="32.443" filterUnits="userSpaceOnUse" color-interpolation-filters="sRGB">
<feFlood flood-opacity="0" result="BackgroundImageFix"/>
<feBlend mode="normal" in="SourceGraphic" in2="BackgroundImageFix" result="shape"/>
<feColorMatrix in="SourceAlpha" type="matrix" values="0 0 0 0 0 0 0 0 0 0 0 0 0 0 0 0 0 0 127 0" result="hardAlpha"/>
<feOffset dy="4"/>
<feGaussianBlur stdDeviation="2.5"/>
<feComposite in2="hardAlpha" operator="arithmetic" k2="-1" k3="1"/>
<feColorMatrix type="matrix" values="0 0 0 0 0.14902 0 0 0 0 0.14902 0 0 0 0 0.14902 0 0 0 0.25 0"/>
<feBlend mode="normal" in2="shape" result="effect1_innerShadow"/>
</filter>
</defs>
</svg>
