<svg width="192" height="70" viewBox="0 0 192 70" fill="none" xmlns="http://www.w3.org/2000/svg">
<g clip-path="url(#clip0)">
<g filter="url(#filter0_i)">
<path d="M31.002 28.443C30.166 28.443 29.4567 28.1517 28.874 27.569C28.2913 26.9863 28 26.277 28 25.441V3.002C28 2.17867 28.2913 1.47567 28.874 0.893002C29.4567 0.297667 30.166 0 31.002 0C31.8253 0 32.5283 0.297667 33.111 0.893002C33.6937 1.47567 33.985 2.17867 33.985 3.002V22.458H45.955C46.7783 22.458 47.4877 22.7493 48.083 23.332C48.6657 23.9147 48.957 24.6177 48.957 25.441C48.957 26.277 48.6657 26.9863 48.083 27.569C47.4877 28.1517 46.7783 28.443 45.955 28.443H31.002Z" fill="#05E6A0"/>
</g>
<g filter="url(#filter1_i)">
<path d="M15.713 63C16.549 63 17.2583 62.7087 17.841 62.126C18.4237 61.5433 18.715 60.834 18.715 59.998C18.715 59.1747 18.4237 58.4717 17.841 57.889C17.2583 57.3063 16.549 57.015 15.713 57.015C13.4457 57.015 11.5077 56.2107 9.89901 54.602C8.29034 52.9933 7.48601 51.0553 7.48601 48.788C7.48601 46.5207 8.29034 44.5763 9.89901 42.955C11.5077 41.3463 13.4457 40.542 15.713 40.542C17.9803 40.542 19.9247 41.3463 21.546 42.955C23.1547 44.5763 23.959 46.5207 23.959 48.788C23.959 49.6113 24.2503 50.3143 24.833 50.897C25.4157 51.4797 26.1187 51.771 26.942 51.771C27.7653 51.771 28.4683 51.4797 29.051 50.897C29.6463 50.3143 29.944 49.6113 29.944 48.788C29.944 44.8613 28.5507 41.511 25.764 38.737C22.99 35.9503 19.6397 34.557 15.713 34.557C11.799 34.557 8.44868 35.9503 5.66201 38.737C2.88801 41.511 1.50101 44.8613 1.50101 48.788C1.50101 52.702 2.88801 56.0523 5.66201 58.839C8.44868 61.613 11.799 63 15.713 63ZM22.477 51.315C21.8943 50.7323 21.1913 50.441 20.368 50.441C19.5447 50.441 18.8417 50.7323 18.259 51.315C17.6637 51.8977 17.366 52.6007 17.366 53.424C17.366 54.26 17.6637 54.9693 18.259 55.552L24.833 62.126C25.4157 62.7087 26.1187 63 26.942 63C27.7653 63 28.4683 62.7087 29.051 62.126C29.6463 61.5433 29.944 60.834 29.944 59.998C29.944 59.1747 29.6463 58.4717 29.051 57.889L22.477 51.315Z" fill="#05E6A0"/>
</g>
<g filter="url(#filter2_i)">
<path d="M65.35 28.443C61.9427 28.443 59.0357 27.2333 56.629 24.814C54.2097 22.4073 53 19.5003 53 16.093V3.002C53 2.17867 53.2913 1.47567 53.874 0.893002C54.4567 0.297667 55.166 0 56.002 0C56.8253 0 57.5283 0.297667 58.111 0.893002C58.6937 1.47567 58.985 2.17867 58.985 3.002V16.093C58.985 17.8537 59.6057 19.3547 60.847 20.596C62.0883 21.8373 63.5893 22.458 65.35 22.458C67.098 22.458 68.5927 21.8373 69.834 20.596C71.088 19.3547 71.715 17.8537 71.715 16.093V3.002C71.715 2.17867 72.0063 1.47567 72.589 0.893002C73.1717 0.297667 73.8747 0 74.698 0C75.5213 0 76.2307 0.297667 76.826 0.893002C77.4087 1.47567 77.7 2.17867 77.7 3.002V16.093C77.7 19.5003 76.4903 22.4073 74.071 24.814C71.6643 27.2333 68.7573 28.443 65.35 28.443ZM96.4005 28.443C100.327 28.443 103.678 27.056 106.451 24.282C107.034 23.6993 107.326 22.99 107.326 22.154C107.326 21.3307 107.034 20.6277 106.451 20.045C105.869 19.4623 105.166 19.171 104.342 19.171C103.506 19.171 102.797 19.4623 102.215 20.045C100.606 21.6537 98.6678 22.458 96.4005 22.458C94.1331 22.458 92.1951 21.6537 90.5865 20.045C88.9778 18.4363 88.1735 16.4983 88.1735 14.231C88.1735 11.951 88.9778 10.0067 90.5865 8.398C92.1951 6.78933 94.1331 5.985 96.4005 5.985C98.6678 5.985 100.606 6.78933 102.215 8.398C102.797 8.99333 103.506 9.291 104.342 9.291C105.166 9.291 105.869 8.99333 106.451 8.398C107.034 7.81533 107.326 7.11233 107.326 6.289C107.326 5.46567 107.034 4.76267 106.451 4.18C103.678 1.39333 100.327 0 96.4005 0C92.4738 0 89.1235 1.39333 86.3495 4.18C83.5755 6.94133 82.1885 10.2917 82.1885 14.231C82.1885 18.1577 83.5755 21.508 86.3495 24.282C89.1235 27.056 92.4738 28.443 96.4005 28.443ZM123.343 9.69L126.915 16.834H119.771L123.343 9.69ZM110.784 28.12C111.519 28.4873 112.279 28.538 113.064 28.272C113.849 28.0187 114.426 27.5183 114.793 26.771L116.769 22.819H129.898L131.893 26.771C132.146 27.2903 132.52 27.702 133.014 28.006C133.495 28.2973 134.015 28.443 134.572 28.443C135.041 28.443 135.484 28.3353 135.902 28.12C136.637 27.7527 137.137 27.1763 137.403 26.391C137.669 25.6057 137.612 24.8457 137.232 24.111L126.022 1.653C125.769 1.14633 125.401 0.741002 124.92 0.437C124.439 0.145667 123.913 0 123.343 0C122.773 0 122.247 0.145667 121.766 0.437C121.285 0.741002 120.917 1.14633 120.664 1.653L109.435 24.111C109.068 24.8457 109.017 25.6057 109.283 26.391C109.536 27.1763 110.037 27.7527 110.784 28.12ZM142.784 22.458C141.948 22.458 141.239 22.7493 140.656 23.332C140.074 23.9147 139.782 24.6177 139.782 25.441C139.782 26.277 140.074 26.9863 140.656 27.569C141.239 28.1517 141.948 28.443 142.784 28.443H155.875C158.244 28.443 160.271 27.6007 161.955 25.916C163.64 24.2313 164.482 22.2047 164.482 19.836C164.482 17.4673 163.64 15.4407 161.955 13.756C160.271 12.0713 158.244 11.229 155.875 11.229H148.389C147.667 11.229 147.053 10.9757 146.546 10.469C146.027 9.9497 145.767 9.329 145.767 8.607C145.767 7.885 146.027 7.27067 146.546 6.764C147.053 6.24467 147.667 5.985 148.389 5.985H161.48C162.304 5.985 163.013 5.69367 163.608 5.111C164.191 4.52833 164.482 3.82533 164.482 3.002C164.482 2.17867 164.191 1.47567 163.608 0.893002C163.013 0.297667 162.304 0 161.48 0H148.389C146.021 0 143.994 0.842332 142.309 2.527C140.625 4.21167 139.782 6.23833 139.782 8.607C139.782 10.9883 140.625 13.015 142.309 14.687C143.994 16.3717 146.021 17.214 148.389 17.214H155.875C156.597 17.214 157.212 17.4737 157.718 17.993C158.238 18.4997 158.497 19.114 158.497 19.836C158.497 20.558 158.238 21.1787 157.718 21.698C157.212 22.2047 156.597 22.458 155.875 22.458H142.784Z" fill="#F5F5F5"/>
</g>
<g filter="url(#filter3_i)">
<path d="M46.352 63C42.9447 63 40.0377 61.7903 37.631 59.371C35.2117 56.9643 34.002 54.0573 34.002 50.65V37.559C34.002 36.7357 34.2933 36.0327 34.876 35.45C35.4587 34.8547 36.168 34.557 37.004 34.557C37.8273 34.557 38.5303 34.8547 39.113 35.45C39.6957 36.0327 39.987 36.7357 39.987 37.559V50.65C39.987 52.4107 40.6077 53.9117 41.849 55.153C43.0903 56.3943 44.5913 57.015 46.352 57.015C48.1 57.015 49.5947 56.3943 50.836 55.153C52.09 53.9117 52.717 52.4107 52.717 50.65V37.559C52.717 36.7357 53.0083 36.0327 53.591 35.45C54.1737 34.8547 54.8767 34.557 55.7 34.557C56.5233 34.557 57.2327 34.8547 57.828 35.45C58.4107 36.0327 58.702 36.7357 58.702 37.559V50.65C58.702 54.0573 57.4923 56.9643 55.073 59.371C52.6663 61.7903 49.7593 63 46.352 63ZM86.3895 63C87.2128 63 87.9221 62.7087 88.5175 62.126C89.1001 61.5433 89.3915 60.834 89.3915 59.998C89.3915 59.1747 89.1001 58.4717 88.5175 57.889C87.9221 57.3063 87.2128 57.015 86.3895 57.015H70.6765V51.771H82.6465C83.4698 51.771 84.1791 51.4797 84.7745 50.897C85.3571 50.3143 85.6485 49.6113 85.6485 48.788C85.6485 47.952 85.3571 47.2427 84.7745 46.66C84.1791 46.0773 83.4698 45.786 82.6465 45.786H70.6765V40.542H86.3895C87.2128 40.542 87.9221 40.2507 88.5175 39.668C89.1001 39.0853 89.3915 38.3823 89.3915 37.559C89.3915 36.7357 89.1001 36.0327 88.5175 35.45C87.9221 34.8547 87.2128 34.557 86.3895 34.557H67.6935C66.8575 34.557 66.1481 34.8547 65.5655 35.45C64.9828 36.0327 64.6915 36.7357 64.6915 37.559V59.998C64.6915 60.834 64.9828 61.5433 65.5655 62.126C66.1481 62.7087 66.8575 63 67.6935 63H86.3895ZM96.8614 63C97.6848 63 98.3878 62.7087 98.9704 62.126C99.5531 61.5433 99.8444 60.834 99.8444 59.998V37.559C99.8444 36.7357 99.5531 36.0327 98.9704 35.45C98.3878 34.8547 97.6848 34.557 96.8614 34.557C96.0254 34.557 95.3161 34.8547 94.7334 35.45C94.1508 36.0327 93.8594 36.7357 93.8594 37.559V59.998C93.8594 60.834 94.1508 61.5433 94.7334 62.126C95.3161 62.7087 96.0254 63 96.8614 63ZM124.561 45.045C124.561 46.2737 124.117 47.3313 123.231 48.218C122.357 49.092 121.299 49.529 120.058 49.529H111.831V40.542H120.058C121.299 40.542 122.357 40.9853 123.231 41.872C124.117 42.746 124.561 43.8037 124.561 45.045ZM118.823 55.514L125.435 62.126C126.017 62.7087 126.72 63 127.544 63C128.367 63 129.076 62.7087 129.672 62.126C130.254 61.5433 130.546 60.834 130.546 59.998C130.546 59.1747 130.254 58.4717 129.672 57.889L125.663 53.88C127.157 52.93 128.335 51.6887 129.197 50.156C130.096 48.5727 130.546 46.869 130.546 45.045C130.546 42.157 129.52 39.687 127.468 37.635C125.416 35.583 122.946 34.557 120.058 34.557H108.848C108.012 34.557 107.302 34.8547 106.72 35.45C106.137 36.0327 105.846 36.7357 105.846 37.559V59.998C105.846 60.834 106.137 61.5433 106.72 62.126C107.302 62.7087 108.012 63 108.848 63C109.671 63 110.374 62.7087 110.957 62.126C111.539 61.5433 111.831 60.834 111.831 59.998V55.514H118.823ZM155.971 48.788C155.971 51.0553 155.166 52.9933 153.558 54.602C151.936 56.2107 149.992 57.015 147.725 57.015C145.457 57.015 143.519 56.2107 141.911 54.602C140.302 52.9933 139.498 51.0553 139.498 48.788C139.498 46.5207 140.302 44.5827 141.911 42.974C143.519 41.3527 145.457 40.542 147.725 40.542C149.992 40.542 151.936 41.3527 153.558 42.974C155.166 44.5827 155.971 46.5207 155.971 48.788ZM133.513 48.788C133.513 52.702 134.9 56.0523 137.674 58.839C140.46 61.613 143.811 63 147.725 63C151.651 63 155.002 61.613 157.776 58.839C160.562 56.0523 161.956 52.702 161.956 48.788C161.956 44.8613 160.562 41.511 157.776 38.737C155.002 35.9503 151.651 34.557 147.725 34.557C143.811 34.557 140.46 35.9503 137.674 38.737C134.9 41.511 133.513 44.8613 133.513 48.788ZM174.33 57.015L188.941 39.478C189.321 39.0347 189.543 38.5217 189.606 37.939C189.682 37.369 189.6 36.818 189.359 36.286C189.106 35.7667 188.739 35.3487 188.257 35.032C187.763 34.7153 187.225 34.557 186.642 34.557H167.946C167.11 34.557 166.401 34.8547 165.818 35.45C165.236 36.0327 164.944 36.7357 164.944 37.559C164.944 38.3823 165.236 39.0853 165.818 39.668C166.401 40.2507 167.11 40.542 167.946 40.542H180.258L165.647 58.098C165.267 58.5413 165.039 59.048 164.963 59.618C164.887 60.2007 164.976 60.7517 165.229 61.271C165.47 61.803 165.837 62.221 166.331 62.525C166.825 62.8417 167.364 63 167.946 63H186.642C187.466 63 188.175 62.7087 188.77 62.126C189.353 61.5433 189.644 60.834 189.644 59.998C189.644 59.1747 189.353 58.4717 188.77 57.889C188.175 57.3063 187.466 57.015 186.642 57.015H174.33Z" fill="#F5F5F5"/>
</g>
</g>
<defs>
<filter id="filter0_i" x="28" y="0" width="20.957" height="32.443" filterUnits="userSpaceOnUse" color-interpolation-filters="sRGB">
<feFlood flood-opacity="0" result="BackgroundImageFix"/>
<feBlend mode="normal" in="SourceGraphic" in2="BackgroundImageFix" result="shape"/>
<feColorMatrix in="SourceAlpha" type="matrix" values="0 0 0 0 0 0 0 0 0 0 0 0 0 0 0 0 0 0 127 0" result="hardAlpha"/>
<feOffset dy="4"/>
<feGaussianBlur stdDeviation="2.5"/>
<feComposite in2="hardAlpha" operator="arithmetic" k2="-1" k3="1"/>
<feColorMatrix type="matrix" values="0 0 0 0 0.14902 0 0 0 0 0.14902 0 0 0 0 0.14902 0 0 0 0.25 0"/>
<feBlend mode="normal" in2="shape" result="effect1_innerShadow"/>
</filter>
<filter id="filter1_i" x="1.50101" y="34.557" width="28.443" height="32.443" filterUnits="userSpaceOnUse" color-interpolation-filters="sRGB">
<feFlood flood-opacity="0" result="BackgroundImageFix"/>
<feBlend mode="normal" in="SourceGraphic" in2="BackgroundImageFix" result="shape"/>
<feColorMatrix in="SourceAlpha" type="matrix" values="0 0 0 0 0 0 0 0 0 0 0 0 0 0 0 0 0 0 127 0" result="hardAlpha"/>
<feOffset dy="4"/>
<feGaussianBlur stdDeviation="2.5"/>
<feComposite in2="hardAlpha" operator="arithmetic" k2="-1" k3="1"/>
<feColorMatrix type="matrix" values="0 0 0 0 0.14902 0 0 0 0 0.14902 0 0 0 0 0.14902 0 0 0 0.25 0"/>
<feBlend mode="normal" in2="shape" result="effect1_innerShadow"/>
</filter>
<filter id="filter2_i" x="53" y="0" width="111.482" height="33.443" filterUnits="userSpaceOnUse" color-interpolation-filters="sRGB">
<feFlood flood-opacity="0" result="BackgroundImageFix"/>
<feBlend mode="normal" in="SourceGraphic" in2="BackgroundImageFix" result="shape"/>
<feColorMatrix in="SourceAlpha" type="matrix" values="0 0 0 0 0 0 0 0 0 0 0 0 0 0 0 0 0 0 127 0" result="hardAlpha"/>
<feOffset dy="5"/>
<feGaussianBlur stdDeviation="2.5"/>
<feComposite in2="hardAlpha" operator="arithmetic" k2="-1" k3="1"/>
<feColorMatrix type="matrix" values="0 0 0 0 0.14902 0 0 0 0 0.14902 0 0 0 0 0.14902 0 0 0 0.25 0"/>
<feBlend mode="normal" in2="shape" result="effect1_innerShadow"/>
</filter>
<filter id="filter3_i" x="34.002" y="34.557" width="155.642" height="33.443" filterUnits="userSpaceOnUse" color-interpolation-filters="sRGB">
<feFlood flood-opacity="0" result="BackgroundImageFix"/>
<feBlend mode="normal" in="SourceGraphic" in2="BackgroundImageFix" result="shape"/>
<feColorMatrix in="SourceAlpha" type="matrix" values="0 0 0 0 0 0 0 0 0 0 0 0 0 0 0 0 0 0 127 0" result="hardAlpha"/>
<feOffset dy="5"/>
<feGaussianBlur stdDeviation="2.5"/>
<feComposite in2="hardAlpha" operator="arithmetic" k2="-1" k3="1"/>
<feColorMatrix type="matrix" values="0 0 0 0 0.14902 0 0 0 0 0.14902 0 0 0 0 0.14902 0 0 0 0.25 0"/>
<feBlend mode="normal" in2="shape" result="effect1_innerShadow"/>
</filter>
<clipPath id="clip0">
<rect width="192" height="70" fill="white"/>
</clipPath>
</defs>
</svg>
