<svg width="30" height="15" viewBox="0 0 30 15" fill="none" xmlns="http://www.w3.org/2000/svg">
<g filter="url(#filter0_i)">
<rect width="30" height="15" rx="7.5" fill="#3B28CC"/>
</g>
<path d="M4.5 3L4.61226 3.34549H4.97553L4.68164 3.55902L4.79389 3.90451L4.5 3.69098L4.20611 3.90451L4.31836 3.55902L4.02447 3.34549H4.38774L4.5 3Z" fill="white"/>
<path d="M5.5 8L5.61226 8.34549H5.97553L5.68164 8.55902L5.79389 8.90451L5.5 8.69098L5.20611 8.90451L5.31836 8.55902L5.02447 8.34549H5.38774L5.5 8Z" fill="white"/>
<path d="M10.5 7L10.6123 7.34549H10.9755L10.6816 7.55902L10.7939 7.90451L10.5 7.69098L10.2061 7.90451L10.3184 7.55902L10.0245 7.34549H10.3877L10.5 7Z" fill="white"/>
<path d="M13.5 4L13.6123 4.34549H13.9755L13.6816 4.55902L13.7939 4.90451L13.5 4.69098L13.2061 4.90451L13.3184 4.55902L13.0245 4.34549H13.3877L13.5 4Z" fill="white"/>
<path d="M7.5 4L7.61226 4.34549H7.97553L7.68164 4.55902L7.79389 4.90451L7.5 4.69098L7.20611 4.90451L7.31836 4.55902L7.02447 4.34549H7.38774L7.5 4Z" fill="white"/>
<path d="M8.5 9L8.61226 9.34549H8.97553L8.68164 9.55902L8.79389 9.90451L8.5 9.69098L8.20611 9.90451L8.31836 9.55902L8.02447 9.34549H8.38774L8.5 9Z" fill="white"/>
<path d="M9.5 12L9.61226 12.3455H9.97553L9.68164 12.559L9.79389 12.9045L9.5 12.691L9.20611 12.9045L9.31836 12.559L9.02447 12.3455H9.38774L9.5 12Z" fill="white"/>
<rect x="16" y="1" width="13" height="13" rx="6.5" fill="#D9D9D9"/>
<mask id="mask0" mask-type="alpha" maskUnits="userSpaceOnUse" x="16" y="1" width="13" height="13">
<rect x="16" y="1" width="13" height="13" rx="6.5" fill="#D9D9D9"/>
</mask>
<g mask="url(#mask0)">
<g filter="url(#filter1_i)">
<circle cx="18.5" cy="2.5" r="1.5" fill="#BFBFBF" fill-opacity="0.6"/>
</g>
<g filter="url(#filter2_i)">
<circle cx="25.5" cy="5.5" r="2.5" fill="#BFBFBF" fill-opacity="0.6"/>
</g>
<g filter="url(#filter3_i)">
<circle cx="19" cy="7" r="1" fill="#BFBFBF" fill-opacity="0.6"/>
</g>
<g filter="url(#filter4_i)">
<circle cx="20.5" cy="12.5" r="2.5" fill="#BFBFBF" fill-opacity="0.6"/>
</g>
<g filter="url(#filter5_i)">
<circle cx="26" cy="11" r="1" fill="#BFBFBF" fill-opacity="0.6"/>
</g>
</g>
<defs>
<filter id="filter0_i" x="0" y="0" width="30" height="20" filterUnits="userSpaceOnUse" color-interpolation-filters="sRGB">
<feFlood flood-opacity="0" result="BackgroundImageFix"/>
<feBlend mode="normal" in="SourceGraphic" in2="BackgroundImageFix" result="shape"/>
<feColorMatrix in="SourceAlpha" type="matrix" values="0 0 0 0 0 0 0 0 0 0 0 0 0 0 0 0 0 0 127 0" result="hardAlpha"/>
<feOffset dy="5"/>
<feGaussianBlur stdDeviation="2.5"/>
<feComposite in2="hardAlpha" operator="arithmetic" k2="-1" k3="1"/>
<feColorMatrix type="matrix" values="0 0 0 0 0.14902 0 0 0 0 0.14902 0 0 0 0 0.14902 0 0 0 0.25 0"/>
<feBlend mode="normal" in2="shape" result="effect1_innerShadow"/>
</filter>
<filter id="filter1_i" x="17" y="1" width="3" height="4" filterUnits="userSpaceOnUse" color-interpolation-filters="sRGB">
<feFlood flood-opacity="0" result="BackgroundImageFix"/>
<feBlend mode="normal" in="SourceGraphic" in2="BackgroundImageFix" result="shape"/>
<feColorMatrix in="SourceAlpha" type="matrix" values="0 0 0 0 0 0 0 0 0 0 0 0 0 0 0 0 0 0 127 0" result="hardAlpha"/>
<feOffset dy="1"/>
<feGaussianBlur stdDeviation="1"/>
<feComposite in2="hardAlpha" operator="arithmetic" k2="-1" k3="1"/>
<feColorMatrix type="matrix" values="0 0 0 0 0.14902 0 0 0 0 0.14902 0 0 0 0 0.14902 0 0 0 0.25 0"/>
<feBlend mode="normal" in2="shape" result="effect1_innerShadow"/>
</filter>
<filter id="filter2_i" x="23" y="3" width="5" height="6" filterUnits="userSpaceOnUse" color-interpolation-filters="sRGB">
<feFlood flood-opacity="0" result="BackgroundImageFix"/>
<feBlend mode="normal" in="SourceGraphic" in2="BackgroundImageFix" result="shape"/>
<feColorMatrix in="SourceAlpha" type="matrix" values="0 0 0 0 0 0 0 0 0 0 0 0 0 0 0 0 0 0 127 0" result="hardAlpha"/>
<feOffset dy="1"/>
<feGaussianBlur stdDeviation="1"/>
<feComposite in2="hardAlpha" operator="arithmetic" k2="-1" k3="1"/>
<feColorMatrix type="matrix" values="0 0 0 0 0.14902 0 0 0 0 0.14902 0 0 0 0 0.14902 0 0 0 0.25 0"/>
<feBlend mode="normal" in2="shape" result="effect1_innerShadow"/>
</filter>
<filter id="filter3_i" x="18" y="6" width="2" height="3" filterUnits="userSpaceOnUse" color-interpolation-filters="sRGB">
<feFlood flood-opacity="0" result="BackgroundImageFix"/>
<feBlend mode="normal" in="SourceGraphic" in2="BackgroundImageFix" result="shape"/>
<feColorMatrix in="SourceAlpha" type="matrix" values="0 0 0 0 0 0 0 0 0 0 0 0 0 0 0 0 0 0 127 0" result="hardAlpha"/>
<feOffset dy="1"/>
<feGaussianBlur stdDeviation="1"/>
<feComposite in2="hardAlpha" operator="arithmetic" k2="-1" k3="1"/>
<feColorMatrix type="matrix" values="0 0 0 0 0.14902 0 0 0 0 0.14902 0 0 0 0 0.14902 0 0 0 0.25 0"/>
<feBlend mode="normal" in2="shape" result="effect1_innerShadow"/>
</filter>
<filter id="filter4_i" x="18" y="10" width="5" height="6" filterUnits="userSpaceOnUse" color-interpolation-filters="sRGB">
<feFlood flood-opacity="0" result="BackgroundImageFix"/>
<feBlend mode="normal" in="SourceGraphic" in2="BackgroundImageFix" result="shape"/>
<feColorMatrix in="SourceAlpha" type="matrix" values="0 0 0 0 0 0 0 0 0 0 0 0 0 0 0 0 0 0 127 0" result="hardAlpha"/>
<feOffset dy="1"/>
<feGaussianBlur stdDeviation="1"/>
<feComposite in2="hardAlpha" operator="arithmetic" k2="-1" k3="1"/>
<feColorMatrix type="matrix" values="0 0 0 0 0.14902 0 0 0 0 0.14902 0 0 0 0 0.14902 0 0 0 0.25 0"/>
<feBlend mode="normal" in2="shape" result="effect1_innerShadow"/>
</filter>
<filter id="filter5_i" x="25" y="10" width="2" height="3" filterUnits="userSpaceOnUse" color-interpolation-filters="sRGB">
<feFlood flood-opacity="0" result="BackgroundImageFix"/>
<feBlend mode="normal" in="SourceGraphic" in2="BackgroundImageFix" result="shape"/>
<feColorMatrix in="SourceAlpha" type="matrix" values="0 0 0 0 0 0 0 0 0 0 0 0 0 0 0 0 0 0 127 0" result="hardAlpha"/>
<feOffset dy="1"/>
<feGaussianBlur stdDeviation="1"/>
<feComposite in2="hardAlpha" operator="arithmetic" k2="-1" k3="1"/>
<feColorMatrix type="matrix" values="0 0 0 0 0.14902 0 0 0 0 0.14902 0 0 0 0 0.14902 0 0 0 0.25 0"/>
<feBlend mode="normal" in2="shape" result="effect1_innerShadow"/>
</filter>
</defs>
</svg>
