<svg width="22" height="22" viewBox="0 0 22 22" fill="none" xmlns="http://www.w3.org/2000/svg">
<path d="M11 0C4.95 0 0 5.03727 0 11.2722C0 16.239 3.1625 20.4661 7.52812 21.9808C8.07812 22.0865 8.28438 21.7342 8.28438 21.4524C8.28438 21.2058 8.28438 20.4661 8.25 19.515C5.19063 20.2195 4.5375 18.0003 4.5375 18.0003C4.02187 16.697 3.3 16.3799 3.3 16.3799C2.30313 15.6754 3.36875 15.6754 3.36875 15.6754C4.46875 15.7459 5.05312 16.8379 5.05312 16.8379C6.01562 18.5639 7.63125 18.0708 8.25 17.7537C8.35312 17.014 8.62813 16.5208 8.9375 16.239C6.53125 15.9924 3.95312 15.0061 3.95312 10.7086C3.95312 9.4757 4.4 8.48938 5.0875 7.71442C4.98438 7.43261 4.60625 6.30539 5.19063 4.72024C5.19063 4.72024 6.11875 4.40321 8.21562 5.88268C9.10938 5.6361 10.0375 5.4952 10.9656 5.4952C11.8938 5.4952 12.8563 5.60088 13.7156 5.88268C15.8125 4.43843 16.7062 4.72024 16.7062 4.72024C17.2906 6.27016 16.9469 7.43261 16.8094 7.71442C17.4969 8.48938 17.9438 9.51093 17.9438 10.7086C17.9438 15.0061 15.3656 15.9924 12.925 16.239C13.3031 16.5913 13.6812 17.2958 13.6812 18.3173C13.6812 19.832 13.6469 21.0297 13.6469 21.382C13.6469 21.699 13.8531 22.016 14.4031 21.9104C18.8375 20.4309 22 16.2038 22 11.237C21.9656 5.03727 17.05 0 11 0Z" fill="#F1F3F5"/>
</svg>
