<svg width="22" height="22" viewBox="0 0 22 22" fill="none" xmlns="http://www.w3.org/2000/svg">
<path d="M20.4152 0H1.61807C0.722966 0 0 0.721875 0 1.58125V20.4188C0 21.2781 0.722966 22 1.61807 22H20.3808C21.2759 22 21.9988 21.2781 21.9988 20.4188V1.58125C22.0332 0.721875 21.3103 0 20.4152 0ZM6.54112 18.7344H3.27056V8.25H6.54112V18.7344ZM4.88863 6.80625C3.85582 6.80625 2.99514 5.94688 2.99514 4.91563C2.99514 3.88438 3.85582 3.025 4.88863 3.025C5.92143 3.025 6.78211 3.88438 6.78211 4.91563C6.78211 5.98125 5.95586 6.80625 4.88863 6.80625ZM18.7627 18.7344H15.4921V13.6469C15.4921 12.4438 15.4577 10.8625 13.8052 10.8625C12.1183 10.8625 11.8429 12.2031 11.8429 13.5438V18.7344H8.57231V8.25H11.7052V9.69375H11.7396C12.1871 8.86875 13.2544 8.00937 14.838 8.00937C18.143 8.00937 18.7627 10.175 18.7627 13.0281V18.7344Z" fill="#F1F3F5"/>
</svg>
