<svg width="22" height="22" viewBox="0 0 22 22" fill="none" xmlns="http://www.w3.org/2000/svg">
<path d="M6.92019 22C15.252 22 19.7966 13.5547 19.7966 6.20729C19.7966 5.99616 19.7966 5.7428 19.7621 5.48944C20.6573 4.68714 21.4147 3.71593 22 2.61804C21.1737 3.08253 20.313 3.37812 19.3834 3.5048C20.313 2.82917 21.036 1.73129 21.3803 0.422265C20.4851 1.05566 19.5556 1.52015 18.4883 1.77351C17.662 0.675624 16.4914 0 15.1831 0C12.6698 0 10.6385 2.49136 10.6385 5.5739C10.6385 5.99616 10.6729 6.41843 10.7418 6.84069C7.09233 6.58733 3.75274 4.39155 1.51487 1.01344C1.13615 1.85797 0.895149 2.78695 0.895149 3.80038C0.895149 5.7428 1.68701 7.43186 2.92645 8.40307C2.16901 8.36084 1.48044 8.10748 0.895149 7.72745C0.895149 7.76967 0.895149 7.76967 0.895149 7.76967C0.895149 10.4299 2.44444 12.7102 4.51017 13.2169C4.13146 13.3436 3.71831 13.428 3.33959 13.428C3.02973 13.428 2.7543 13.3858 2.47887 13.3013C3.06416 15.4971 4.71674 17.1017 6.71361 17.144C5.16432 18.6219 3.20188 19.5086 1.10172 19.5086C0.688576 19.5509 0.344288 19.5086 0 19.4664C1.96244 21.071 4.37246 22 6.92019 22Z" fill="#F1F3F5"/>
</svg>
